<?xml version="1.0" encoding="iso-8859-1"?>
<!-- Generator: Adobe Illustrator 21.0.0, SVG Export Plug-In . SVG Version: 6.00 Build 0)  -->
<svg version="1.1" id="Capa_1" xmlns="http://www.w3.org/2000/svg" xmlns:xlink="http://www.w3.org/1999/xlink" x="0px" y="0px"
	 viewBox="0 0 512 512" style="enable-background:new 0 0 512 512;" xml:space="preserve">
<linearGradient id="SVGID_1_" gradientUnits="userSpaceOnUse" x1="291.2989" y1="268.8349" x2="554.1089" y2="301.6549" gradientTransform="matrix(1.0039 0 0 -1.0039 0.1922 516.5663)">
	<stop  offset="0" style="stop-color:#FFF465"/>
	<stop  offset="1" style="stop-color:#FFE600"/>
</linearGradient>
<path style="fill:url(#SVGID_1_);" d="M455.264,380.482l-271.81,33.935c-8.748,1.092-16.724-5.114-17.817-13.861l-33.935-271.81
	c-1.092-8.748,5.114-16.724,13.861-17.817l271.81-33.936c8.748-1.092,16.724,5.114,17.817,13.861l33.935,271.81
	C470.217,371.413,464.012,379.39,455.264,380.482z"/>
<linearGradient id="SVGID_2_" gradientUnits="userSpaceOnUse" x1="410.1556" y1="270.4316" x2="229.2457" y2="411.1816" gradientTransform="matrix(1.0039 0 0 -1.0039 0.1922 516.5663)">
	<stop  offset="0" style="stop-color:#FFE600;stop-opacity:0"/>
	<stop  offset="1" style="stop-color:#F59500"/>
</linearGradient>
<path style="fill:url(#SVGID_2_);" d="M249.88,212.594l178.572,138.933l3.332,2.283c3.864,2.648,9.097,1.996,12.192-1.52
	l0.006-0.007c3.095-3.516,8.328-4.168,12.192-1.52c3.544,2.428,8.234,2.073,11.376-0.714l-21.483-172.074L330.253,87.87
	l-97.569,12.182l13.24,106.048C246.252,208.731,247.693,211.095,249.88,212.594z"/>
<linearGradient id="SVGID_3_" gradientUnits="userSpaceOnUse" x1="251.987" y1="412.7744" x2="344.837" y2="290.8744" gradientTransform="matrix(1.0039 0 0 -1.0039 0.1922 516.5663)">
	<stop  offset="0" style="stop-color:#FFB92D"/>
	<stop  offset="1" style="stop-color:#F59500"/>
</linearGradient>
<path style="fill:url(#SVGID_3_);" d="M330.253,87.87l13.24,106.046c0.328,2.632-0.487,5.28-2.24,7.271l-2.673,3.037
	c-3.095,3.515-8.326,4.167-12.19,1.522l-0.01-0.007c-3.865-2.646-9.098-1.993-12.192,1.524l-0.002,0.002
	c-3.094,3.517-8.327,4.17-12.192,1.524l-0.008-0.005c-3.865-2.646-9.098-1.993-12.192,1.524l0,0
	c-3.095,3.518-8.33,4.171-12.194,1.522l0,0c-3.864-2.648-9.097-1.996-12.192,1.52l-0.006,0.007
	c-3.095,3.516-8.328,4.168-12.192,1.52l-3.331-2.283c-2.188-1.499-3.628-3.864-3.956-6.495l-13.241-106.047L330.253,87.87z"/>
<linearGradient id="SVGID_4_" gradientUnits="userSpaceOnUse" x1="311.9625" y1="166.365" x2="320.6025" y2="97.1649" gradientTransform="matrix(1.0039 0 0 -1.0039 0.1922 516.5663)">
	<stop  offset="0" style="stop-color:#FFE600;stop-opacity:0"/>
	<stop  offset="1" style="stop-color:#F59500"/>
</linearGradient>
<path style="fill:url(#SVGID_4_);" d="M155.012,315.452l10.625,85.103c1.092,8.748,9.068,14.953,17.817,13.861l271.81-33.935
	c8.748-1.092,14.953-9.068,13.862-17.817L458.5,277.562L155.012,315.452z"/>
<g>
	
		<rect x="187.65" y="365.212" transform="matrix(0.9923 -0.1239 0.1239 0.9923 -44.7488 30.3187)" style="fill:#3B4041;" width="67.474" height="19.453"/>
	
		<rect x="182.391" y="321.817" transform="matrix(0.9923 -0.1239 0.1239 0.9923 -39.2603 31.7844)" style="fill:#3B4041;" width="107.049" height="19.453"/>
</g>
<linearGradient id="SVGID_5_" gradientUnits="userSpaceOnUse" x1="65.1325" y1="255.7908" x2="485.7959" y2="308.3112" gradientTransform="matrix(1.0039 0 0 -1.0039 0.1922 516.5663)">
	<stop  offset="0" style="stop-color:#C3C3C3"/>
	<stop  offset="1" style="stop-color:#777777"/>
</linearGradient>
<path style="fill:url(#SVGID_5_);" d="M498.593,416.254l-313.019,39.08c-29.182,3.643-55.888-17.134-59.532-46.317l-32.26-258.399
	c-3.272-26.206-16.553-49.568-37.395-65.785l-9.007-7.008c-6.67-5.188-7.871-14.803-2.68-21.472
	c5.188-6.669,14.803-7.87,21.472-2.68l9.007,7.008c27.295,21.236,44.687,51.83,48.97,86.147l32.26,258.399
	c1.553,12.439,12.936,21.294,25.374,19.741l313.019-39.08c8.386-1.047,16.032,4.902,17.079,13.288
	C512.928,407.56,506.979,415.207,498.593,416.254z"/>
<linearGradient id="SVGID_6_" gradientUnits="userSpaceOnUse" x1="85.9786" y1="422.0055" x2="48.1286" y2="451.4555" gradientTransform="matrix(1.0039 0 0 -1.0039 0.1922 516.5663)">
	<stop  offset="0" style="stop-color:#C3C3C3;stop-opacity:0"/>
	<stop  offset="0.267" style="stop-color:#A4A4A4;stop-opacity:0.267"/>
	<stop  offset="0.542" style="stop-color:#8B8B8B;stop-opacity:0.542"/>
	<stop  offset="0.794" style="stop-color:#7C7C7C;stop-opacity:0.794"/>
	<stop  offset="1" style="stop-color:#777777"/>
</linearGradient>
<path style="fill:url(#SVGID_6_);" d="M75.178,60.68l-9.007-7.008c-6.669-5.188-16.284-3.989-21.472,2.68
	c-5.189,6.669-3.99,16.284,2.68,21.472l9.007,7.008c9.589,7.461,17.574,16.438,23.724,26.507l19.767-25.406
	C92.924,76.546,84.649,68.049,75.178,60.68z"/>
<linearGradient id="SVGID_7_" gradientUnits="userSpaceOnUse" x1="49.5689" y1="484.631" x2="19.9478" y2="446.5604" gradientTransform="matrix(1.0039 0 0 -1.0039 0.1922 516.5663)">
	<stop  offset="0" style="stop-color:#62E1FB"/>
	<stop  offset="1" style="stop-color:#00A2F3"/>
</linearGradient>
<path style="fill:url(#SVGID_7_);" d="M5.104,25.818L5.104,25.818c8.211-10.554,23.424-12.454,33.978-4.242l21.746,16.918
	c10.554,8.211,12.454,23.424,4.242,33.978l0,0c-8.211,10.554-23.423,12.453-33.978,4.242L9.346,59.795
	C-1.208,51.584-3.108,36.372,5.104,25.818z"/>
<linearGradient id="SVGID_8_" gradientUnits="userSpaceOnUse" x1="232.6078" y1="60.2644" x2="201.3778" y2="84.5544" gradientTransform="matrix(1.0039 0 0 -1.0039 0.1922 516.5663)">
	<stop  offset="0" style="stop-color:#C3C3C3;stop-opacity:0"/>
	<stop  offset="0.267" style="stop-color:#A4A4A4;stop-opacity:0.267"/>
	<stop  offset="0.542" style="stop-color:#8B8B8B;stop-opacity:0.542"/>
	<stop  offset="0.794" style="stop-color:#7C7C7C;stop-opacity:0.794"/>
	<stop  offset="1" style="stop-color:#777777"/>
</linearGradient>
<polygon style="fill:url(#SVGID_8_);" points="205.704,452.82 246.771,447.693 212.698,421.183 212.472,421.135 201.912,422.453 "/>
<linearGradient id="SVGID_9_" gradientUnits="userSpaceOnUse" x1="118.7213" y1="107.9089" x2="190.6313" y2="51.9689" gradientTransform="matrix(1.0039 0 0 -1.0039 0.1922 516.5663)">
	<stop  offset="0" style="stop-color:#777777"/>
	<stop  offset="1" style="stop-color:#3B4041"/>
</linearGradient>
<circle style="fill:url(#SVGID_9_);" cx="156.241" cy="436.909" r="58.619"/>
<linearGradient id="SVGID_10_" gradientUnits="userSpaceOnUse" x1="159.4086" y1="47.557" x2="151.6386" y2="109.777" gradientTransform="matrix(1.0039 0 0 -1.0039 0.1922 516.5663)">
	<stop  offset="0" style="stop-color:#777777"/>
	<stop  offset="1" style="stop-color:#3B4041"/>
</linearGradient>
<circle style="fill:url(#SVGID_10_);" cx="156.241" cy="436.909" r="40.348"/>
<linearGradient id="SVGID_11_" gradientUnits="userSpaceOnUse" x1="143.2724" y1="88.8103" x2="167.0923" y2="70.2803" gradientTransform="matrix(1.0039 0 0 -1.0039 0.1922 516.5663)">
	<stop  offset="0" style="stop-color:#C3C3C3"/>
	<stop  offset="1" style="stop-color:#777777"/>
</linearGradient>
<circle style="fill:url(#SVGID_11_);" cx="156.241" cy="436.909" r="19.421"/>
<g>
</g>
<g>
</g>
<g>
</g>
<g>
</g>
<g>
</g>
<g>
</g>
<g>
</g>
<g>
</g>
<g>
</g>
<g>
</g>
<g>
</g>
<g>
</g>
<g>
</g>
<g>
</g>
<g>
</g>
</svg>
